<?xml version="1.0" standalone="no"?>
<!DOCTYPE svg PUBLIC "-//W3C//DTD SVG 20010904//EN"
 "http://www.w3.org/TR/2001/REC-SVG-20010904/DTD/svg10.dtd">
<svg version="1.0" xmlns="http://www.w3.org/2000/svg"
 width="300.000000pt" height="300.000000pt" viewBox="0 0 300.000000 300.000000"
 preserveAspectRatio="xMidYMid meet">

<g transform="translate(0.000000,300.000000) scale(0.100000,-0.100000)"
fill="#000000" stroke="none">
<path d="M0 1500 l0 -1500 1500 0 1500 0 0 1500 0 1500 -1500 0 -1500 0 0
-1500z m1732 764 c128 -75 246 -148 262 -162 67 -62 97 -201 63 -285 -27 -64
-37 -65 -141 -7 l-94 52 -5 45 c-3 25 -14 57 -24 72 -11 14 -81 61 -156 105
l-137 79 -122 -73 c-68 -41 -138 -88 -155 -106 -29 -28 -33 -39 -33 -83 0 -42
5 -56 28 -80 15 -16 182 -111 382 -217 195 -103 369 -198 386 -210 18 -13 44
-47 58 -76 46 -91 31 -236 -30 -290 -11 -9 -130 -83 -264 -164 l-244 -147 -36
20 c-151 84 -456 266 -472 280 -41 37 -62 94 -62 168 0 110 26 147 173 237
l84 52 72 -37 c119 -62 118 -57 37 -105 -85 -51 -112 -82 -112 -131 0 -53 29
-80 179 -166 l134 -76 121 73 c153 92 187 122 188 166 2 67 3 66 -626 402 -76
40 -149 82 -162 93 -34 27 -84 129 -91 187 -9 75 12 143 61 195 26 28 125 95
271 184 127 77 231 141 232 141 1 0 107 -61 235 -136z m-203 -343 c25 -25 17
-59 -15 -67 -14 -4 -31 -1 -39 6 -20 17 -19 57 3 69 24 14 29 14 51 -8z m322
-192 c52 -28 95 -52 97 -54 1 -1 -25 -19 -59 -39 l-61 -36 -94 51 c-52 27 -94
53 -94 57 1 7 100 71 111 72 3 0 48 -23 100 -51z m-323 -491 c17 -17 15 -53
-3 -68 -12 -10 -21 -10 -40 -2 -40 19 -29 82 15 82 9 0 21 -5 28 -12z"/>
</g>
</svg>
